<svg xmlns="http://www.w3.org/2000/svg" version="1.1" xmlns:xlink="http://www.w3.org/1999/xlink" xmlns:svgjs="http://svgjs.com/svgjs" width="1440" height="858" preserveAspectRatio="none" viewBox="0 0 1440 858"><g mask="url(&quot;#SvgjsMask3348&quot;)" fill="none"><rect width="1440" height="858" x="0" y="0" fill="rgba(239, 146, 115, 1)"></rect><use xlink:href="#SvgjsG3354" transform="translate(0, 0)" fill="rgba(255, 206, 175, 1)"></use><use xlink:href="#SvgjsG3354" transform="translate(0, 857.9999999999999)" fill="rgba(255, 206, 175, 1)"></use><use xlink:href="#SvgjsG3354" transform="translate(931, 0)" fill="rgba(255, 206, 175, 1)"></use><use xlink:href="#SvgjsG3354" transform="translate(931, 857.9999999999999)" fill="rgba(255, 206, 175, 1)"></use></g><defs><mask id="SvgjsMask3348"><rect width="1440" height="858" fill="#ffffff"></rect></mask><g id="SvgjsG3352"><path d="M6.837 0.883c0.002-1.183 1.782-1.183 1.784 0.033v4.953L15.558 10.047v1.826L8.654 9.605V13.307l1.593 1.25V16L7.787 15.242 5.32 16v-1.443l1.584-1.25V9.605L0 11.873V10.047l6.837-4.178V0.883z"></path></g><g id="SvgjsG3350"><path d="M14.667 10.461V12.947h1.313V9.231H1.302V3.854A0.652 0.652 0 0 0 0.65 3.2C0.29 3.2 0 3.494 0 3.854V12.947h1.302V10.462h13.365z"></path><path d="M3.306 6.475a1.179 1.179 0 0 0 1.179-1.182c0-0.65-0.527-1.178-1.179-1.177s-1.179 0.528-1.179 1.177a1.179 1.179 0 0 0 1.18 1.182z"></path><path d="M16 8.254l-0.004-1.624c-0.004-0.515-0.437-0.871-0.94-0.932L5.79 4.774c-0.018-0.004-0.035-0.012-0.052-0.012a0.581 0.581 0 0 0-0.58 0.581v1.75H2.735a0.582 0.582 0 0 0-0.584 0.581c0 0.323 0.26 0.581 0.584 0.581H16z"></path></g><g id="SvgjsG3351"><path d="M2.524 8.637H0.014V7.308h2.51v1.329zM3.656 4.576L1.884 2.804l0.935-0.935 1.772 1.772-0.935 0.935z m0 6.817l0.935 0.935-1.772 1.773-0.934-0.936 1.771-1.772z m4.997-8.884h-1.33V-0.002h1.33v2.511z m-1.33 10.952h1.33v2.51h-1.33v-2.509zM12.344 4.576l-0.96-0.935 1.796-1.772 0.935 0.935-1.772 1.772z m0 6.792l1.771 1.797-0.935 0.936-1.771-1.774 0.936-0.96z m3.643-4.06v1.329h-2.51V7.308h2.509z"></path><path d="M3.702 7.984a4.184 4.184 0 1 0 8.368 0 4.184 4.184 0 1 0-8.368 0"></path></g><g id="SvgjsG3349"><path d="M12.872 14.056H9.025v-5.485L15.968 0H0l7.07 8.528v5.528h-3.773c-1.304 0.003-1.304 1.944 0 1.944H12.872c1.296 0 1.285-1.942 0-1.944zM8.021 4.809c-0.001-0.682 0.553-1.236 1.237-1.237 0.684 0 1.239 0.555 1.236 1.237 0.003 0.687-0.552 1.241-1.236 1.236-0.684 0.004-1.238-0.55-1.237-1.236z"></path></g><g id="SvgjsG3353"><path d="M2.796 14.654h-1.184C0.792 14.653 0.001 14.052 0 13.006c0 0 0.001-7.471 0-7.494 0.001-0.926 0.773-1.629 1.612-1.63h1.184v10.772z m7.448-10.754V2.352c0.004-0.558-0.49-0.914-1.093-0.91 0 0-2.303-0.004-2.294 0-0.6-0.004-1.103 0.352-1.102 0.91v1.548H3.597v10.772h8.823V3.9h-2.176z m-0.81 0H6.547v-1.593h2.887v1.593z m3.779 10.754h1.184c0.814-0.002 1.605-0.602 1.603-1.648 0 0 0.003-7.471 0-7.494 0.003-0.926-0.77-1.63-1.602-1.631h-1.184v10.772z"></path></g><g id="SvgjsG3354"><use xlink:href="#SvgjsG3349" transform="translate(0, 0) scale(1.9)" fill="rgba(255, 206, 175, 1)"></use><use xlink:href="#SvgjsG3350" transform="translate(0, 93.1) scale(1.9)" fill="rgba(255, 206, 175, 1)"></use><use xlink:href="#SvgjsG3350" transform="translate(0, 186.2) scale(1.9)" fill="rgba(255, 206, 175, 1)"></use><use xlink:href="#SvgjsG3351" transform="translate(0, 279.29999999999995) scale(1.9)" fill="rgba(255, 206, 175, 1)"></use><use xlink:href="#SvgjsG3350" transform="translate(0, 372.4) scale(1.9)" fill="rgba(255, 206, 175, 1)"></use><use xlink:href="#SvgjsG3352" transform="translate(0, 465.5) scale(1.9)" fill="rgba(255, 206, 175, 1)"></use><use xlink:href="#SvgjsG3349" transform="translate(0, 558.5999999999999) scale(1.9)" fill="rgba(255, 206, 175, 1)"></use><use xlink:href="#SvgjsG3350" transform="translate(0, 651.6999999999999) scale(1.9)" fill="rgba(255, 206, 175, 1)"></use><use xlink:href="#SvgjsG3350" transform="translate(0, 744.8) scale(1.9)" fill="rgba(255, 206, 175, 1)"></use><use xlink:href="#SvgjsG3350" transform="translate(0, 837.9) scale(1.9)" fill="rgba(255, 206, 175, 1)"></use><use xlink:href="#SvgjsG3351" transform="translate(93.1, 0) scale(1.9)" fill="rgba(255, 206, 175, 1)"></use><use xlink:href="#SvgjsG3353" transform="translate(93.1, 93.1) scale(1.9)" fill="rgba(255, 206, 175, 1)"></use><use xlink:href="#SvgjsG3352" transform="translate(93.1, 186.2) scale(1.9)" fill="rgba(255, 206, 175, 1)"></use><use xlink:href="#SvgjsG3349" transform="translate(93.1, 279.29999999999995) scale(1.9)" fill="rgba(255, 206, 175, 1)"></use><use xlink:href="#SvgjsG3351" transform="translate(93.1, 372.4) scale(1.9)" fill="rgba(255, 206, 175, 1)"></use><use xlink:href="#SvgjsG3351" transform="translate(93.1, 465.5) scale(1.9)" fill="rgba(255, 206, 175, 1)"></use><use xlink:href="#SvgjsG3352" transform="translate(93.1, 558.5999999999999) scale(1.9)" fill="rgba(255, 206, 175, 1)"></use><use xlink:href="#SvgjsG3349" transform="translate(93.1, 651.6999999999999) scale(1.9)" fill="rgba(255, 206, 175, 1)"></use><use xlink:href="#SvgjsG3351" transform="translate(93.1, 744.8) scale(1.9)" fill="rgba(255, 206, 175, 1)"></use><use xlink:href="#SvgjsG3352" transform="translate(93.1, 837.9) scale(1.9)" fill="rgba(255, 206, 175, 1)"></use><use xlink:href="#SvgjsG3353" transform="translate(186.2, 0) scale(1.9)" fill="rgba(255, 206, 175, 1)"></use><use xlink:href="#SvgjsG3351" transform="translate(186.2, 93.1) scale(1.9)" fill="rgba(255, 206, 175, 1)"></use><use xlink:href="#SvgjsG3351" transform="translate(186.2, 186.2) scale(1.9)" fill="rgba(255, 206, 175, 1)"></use><use xlink:href="#SvgjsG3349" transform="translate(186.2, 279.29999999999995) scale(1.9)" fill="rgba(255, 206, 175, 1)"></use><use xlink:href="#SvgjsG3353" transform="translate(186.2, 372.4) scale(1.9)" fill="rgba(255, 206, 175, 1)"></use><use xlink:href="#SvgjsG3352" transform="translate(186.2, 465.5) scale(1.9)" fill="rgba(255, 206, 175, 1)"></use><use xlink:href="#SvgjsG3352" transform="translate(186.2, 558.5999999999999) scale(1.9)" fill="rgba(255, 206, 175, 1)"></use><use xlink:href="#SvgjsG3353" transform="translate(186.2, 651.6999999999999) scale(1.9)" fill="rgba(255, 206, 175, 1)"></use><use xlink:href="#SvgjsG3353" transform="translate(186.2, 744.8) scale(1.9)" fill="rgba(255, 206, 175, 1)"></use><use xlink:href="#SvgjsG3350" transform="translate(186.2, 837.9) scale(1.9)" fill="rgba(255, 206, 175, 1)"></use><use xlink:href="#SvgjsG3352" transform="translate(279.29999999999995, 0) scale(1.9)" fill="rgba(255, 206, 175, 1)"></use><use xlink:href="#SvgjsG3352" transform="translate(279.29999999999995, 93.1) scale(1.9)" fill="rgba(255, 206, 175, 1)"></use><use xlink:href="#SvgjsG3351" transform="translate(279.29999999999995, 186.2) scale(1.9)" fill="rgba(255, 206, 175, 1)"></use><use xlink:href="#SvgjsG3353" transform="translate(279.29999999999995, 279.29999999999995) scale(1.9)" fill="rgba(255, 206, 175, 1)"></use><use xlink:href="#SvgjsG3350" transform="translate(279.29999999999995, 372.4) scale(1.9)" fill="rgba(255, 206, 175, 1)"></use><use xlink:href="#SvgjsG3350" transform="translate(279.29999999999995, 465.5) scale(1.9)" fill="rgba(255, 206, 175, 1)"></use><use xlink:href="#SvgjsG3352" transform="translate(279.29999999999995, 558.5999999999999) scale(1.9)" fill="rgba(255, 206, 175, 1)"></use><use xlink:href="#SvgjsG3353" transform="translate(279.29999999999995, 651.6999999999999) scale(1.9)" fill="rgba(255, 206, 175, 1)"></use><use xlink:href="#SvgjsG3352" transform="translate(279.29999999999995, 744.8) scale(1.9)" fill="rgba(255, 206, 175, 1)"></use><use xlink:href="#SvgjsG3350" transform="translate(279.29999999999995, 837.9) scale(1.9)" fill="rgba(255, 206, 175, 1)"></use><use xlink:href="#SvgjsG3351" transform="translate(372.4, 0) scale(1.9)" fill="rgba(255, 206, 175, 1)"></use><use xlink:href="#SvgjsG3353" transform="translate(372.4, 93.1) scale(1.9)" fill="rgba(255, 206, 175, 1)"></use><use xlink:href="#SvgjsG3350" transform="translate(372.4, 186.2) scale(1.9)" fill="rgba(255, 206, 175, 1)"></use><use xlink:href="#SvgjsG3351" transform="translate(372.4, 279.29999999999995) scale(1.9)" fill="rgba(255, 206, 175, 1)"></use><use xlink:href="#SvgjsG3351" transform="translate(372.4, 372.4) scale(1.9)" fill="rgba(255, 206, 175, 1)"></use><use xlink:href="#SvgjsG3351" transform="translate(372.4, 465.5) scale(1.9)" fill="rgba(255, 206, 175, 1)"></use><use xlink:href="#SvgjsG3353" transform="translate(372.4, 558.5999999999999) scale(1.9)" fill="rgba(255, 206, 175, 1)"></use><use xlink:href="#SvgjsG3352" transform="translate(372.4, 651.6999999999999) scale(1.9)" fill="rgba(255, 206, 175, 1)"></use><use xlink:href="#SvgjsG3350" transform="translate(372.4, 744.8) scale(1.9)" fill="rgba(255, 206, 175, 1)"></use><use xlink:href="#SvgjsG3349" transform="translate(372.4, 837.9) scale(1.9)" fill="rgba(255, 206, 175, 1)"></use><use xlink:href="#SvgjsG3350" transform="translate(465.5, 0) scale(1.9)" fill="rgba(255, 206, 175, 1)"></use><use xlink:href="#SvgjsG3351" transform="translate(465.5, 93.1) scale(1.9)" fill="rgba(255, 206, 175, 1)"></use><use xlink:href="#SvgjsG3349" transform="translate(465.5, 186.2) scale(1.9)" fill="rgba(255, 206, 175, 1)"></use><use xlink:href="#SvgjsG3352" transform="translate(465.5, 279.29999999999995) scale(1.9)" fill="rgba(255, 206, 175, 1)"></use><use xlink:href="#SvgjsG3352" transform="translate(465.5, 372.4) scale(1.9)" fill="rgba(255, 206, 175, 1)"></use><use xlink:href="#SvgjsG3351" transform="translate(465.5, 465.5) scale(1.9)" fill="rgba(255, 206, 175, 1)"></use><use xlink:href="#SvgjsG3349" transform="translate(465.5, 558.5999999999999) scale(1.9)" fill="rgba(255, 206, 175, 1)"></use><use xlink:href="#SvgjsG3351" transform="translate(465.5, 651.6999999999999) scale(1.9)" fill="rgba(255, 206, 175, 1)"></use><use xlink:href="#SvgjsG3349" transform="translate(465.5, 744.8) scale(1.9)" fill="rgba(255, 206, 175, 1)"></use><use xlink:href="#SvgjsG3351" transform="translate(465.5, 837.9) scale(1.9)" fill="rgba(255, 206, 175, 1)"></use><use xlink:href="#SvgjsG3352" transform="translate(558.5999999999999, 0) scale(1.9)" fill="rgba(255, 206, 175, 1)"></use><use xlink:href="#SvgjsG3349" transform="translate(558.5999999999999, 93.1) scale(1.9)" fill="rgba(255, 206, 175, 1)"></use><use xlink:href="#SvgjsG3350" transform="translate(558.5999999999999, 186.2) scale(1.9)" fill="rgba(255, 206, 175, 1)"></use><use xlink:href="#SvgjsG3353" transform="translate(558.5999999999999, 279.29999999999995) scale(1.9)" fill="rgba(255, 206, 175, 1)"></use><use xlink:href="#SvgjsG3352" transform="translate(558.5999999999999, 372.4) scale(1.9)" fill="rgba(255, 206, 175, 1)"></use><use xlink:href="#SvgjsG3352" transform="translate(558.5999999999999, 465.5) scale(1.9)" fill="rgba(255, 206, 175, 1)"></use><use xlink:href="#SvgjsG3349" transform="translate(558.5999999999999, 558.5999999999999) scale(1.9)" fill="rgba(255, 206, 175, 1)"></use><use xlink:href="#SvgjsG3352" transform="translate(558.5999999999999, 651.6999999999999) scale(1.9)" fill="rgba(255, 206, 175, 1)"></use><use xlink:href="#SvgjsG3351" transform="translate(558.5999999999999, 744.8) scale(1.9)" fill="rgba(255, 206, 175, 1)"></use><use xlink:href="#SvgjsG3350" transform="translate(558.5999999999999, 837.9) scale(1.9)" fill="rgba(255, 206, 175, 1)"></use><use xlink:href="#SvgjsG3350" transform="translate(651.6999999999999, 0) scale(1.9)" fill="rgba(255, 206, 175, 1)"></use><use xlink:href="#SvgjsG3351" transform="translate(651.6999999999999, 93.1) scale(1.9)" fill="rgba(255, 206, 175, 1)"></use><use xlink:href="#SvgjsG3351" transform="translate(651.6999999999999, 186.2) scale(1.9)" fill="rgba(255, 206, 175, 1)"></use><use xlink:href="#SvgjsG3351" transform="translate(651.6999999999999, 279.29999999999995) scale(1.9)" fill="rgba(255, 206, 175, 1)"></use><use xlink:href="#SvgjsG3352" transform="translate(651.6999999999999, 372.4) scale(1.9)" fill="rgba(255, 206, 175, 1)"></use><use xlink:href="#SvgjsG3349" transform="translate(651.6999999999999, 465.5) scale(1.9)" fill="rgba(255, 206, 175, 1)"></use><use xlink:href="#SvgjsG3351" transform="translate(651.6999999999999, 558.5999999999999) scale(1.9)" fill="rgba(255, 206, 175, 1)"></use><use xlink:href="#SvgjsG3352" transform="translate(651.6999999999999, 651.6999999999999) scale(1.9)" fill="rgba(255, 206, 175, 1)"></use><use xlink:href="#SvgjsG3349" transform="translate(651.6999999999999, 744.8) scale(1.9)" fill="rgba(255, 206, 175, 1)"></use><use xlink:href="#SvgjsG3349" transform="translate(651.6999999999999, 837.9) scale(1.9)" fill="rgba(255, 206, 175, 1)"></use><use xlink:href="#SvgjsG3351" transform="translate(744.8, 0) scale(1.9)" fill="rgba(255, 206, 175, 1)"></use><use xlink:href="#SvgjsG3353" transform="translate(744.8, 93.1) scale(1.9)" fill="rgba(255, 206, 175, 1)"></use><use xlink:href="#SvgjsG3352" transform="translate(744.8, 186.2) scale(1.9)" fill="rgba(255, 206, 175, 1)"></use><use xlink:href="#SvgjsG3351" transform="translate(744.8, 279.29999999999995) scale(1.9)" fill="rgba(255, 206, 175, 1)"></use><use xlink:href="#SvgjsG3350" transform="translate(744.8, 372.4) scale(1.9)" fill="rgba(255, 206, 175, 1)"></use><use xlink:href="#SvgjsG3353" transform="translate(744.8, 465.5) scale(1.9)" fill="rgba(255, 206, 175, 1)"></use><use xlink:href="#SvgjsG3350" transform="translate(744.8, 558.5999999999999) scale(1.9)" fill="rgba(255, 206, 175, 1)"></use><use xlink:href="#SvgjsG3349" transform="translate(744.8, 651.6999999999999) scale(1.9)" fill="rgba(255, 206, 175, 1)"></use><use xlink:href="#SvgjsG3349" transform="translate(744.8, 744.8) scale(1.9)" fill="rgba(255, 206, 175, 1)"></use><use xlink:href="#SvgjsG3349" transform="translate(744.8, 837.9) scale(1.9)" fill="rgba(255, 206, 175, 1)"></use><use xlink:href="#SvgjsG3352" transform="translate(837.9, 0) scale(1.9)" fill="rgba(255, 206, 175, 1)"></use><use xlink:href="#SvgjsG3352" transform="translate(837.9, 93.1) scale(1.9)" fill="rgba(255, 206, 175, 1)"></use><use xlink:href="#SvgjsG3351" transform="translate(837.9, 186.2) scale(1.9)" fill="rgba(255, 206, 175, 1)"></use><use xlink:href="#SvgjsG3353" transform="translate(837.9, 279.29999999999995) scale(1.9)" fill="rgba(255, 206, 175, 1)"></use><use xlink:href="#SvgjsG3352" transform="translate(837.9, 372.4) scale(1.9)" fill="rgba(255, 206, 175, 1)"></use><use xlink:href="#SvgjsG3353" transform="translate(837.9, 465.5) scale(1.9)" fill="rgba(255, 206, 175, 1)"></use><use xlink:href="#SvgjsG3350" transform="translate(837.9, 558.5999999999999) scale(1.9)" fill="rgba(255, 206, 175, 1)"></use><use xlink:href="#SvgjsG3349" transform="translate(837.9, 651.6999999999999) scale(1.9)" fill="rgba(255, 206, 175, 1)"></use><use xlink:href="#SvgjsG3352" transform="translate(837.9, 744.8) scale(1.9)" fill="rgba(255, 206, 175, 1)"></use><use xlink:href="#SvgjsG3352" transform="translate(837.9, 837.9) scale(1.9)" fill="rgba(255, 206, 175, 1)"></use></g></defs></svg>