<svg xmlns="http://www.w3.org/2000/svg" version="1.1" xmlns:xlink="http://www.w3.org/1999/xlink" xmlns:svgjs="http://svgjs.com/svgjs" width="1440" height="560" preserveAspectRatio="none" viewBox="0 0 1440 560"><g mask="url(&quot;#SvgjsMask1209&quot;)" fill="none"><rect width="1440" height="560" x="0" y="0" fill="url(#SvgjsLinearGradient1210)"></rect><path d="M1440 0L1285.3 0L1440 116.09z" fill="rgba(255, 255, 255, .1)"></path><path d="M1285.3 0L1440 116.09L1440 265.28999999999996L1089.07 0z" fill="rgba(255, 255, 255, .075)"></path><path d="M1089.0700000000002 0L1440 265.28999999999996L1440 420.0799999999999L901.8400000000001 0z" fill="rgba(255, 255, 255, .05)"></path><path d="M901.84 0L1440 420.0799999999999L1440 470.67999999999995L824.45 0z" fill="rgba(255, 255, 255, .025)"></path><path d="M0 560L643.27 560L0 493.28z" fill="rgba(0, 0, 0, .1)"></path><path d="M0 493.28L643.27 560L1018.62 560L0 385.85999999999996z" fill="rgba(0, 0, 0, .075)"></path><path d="M0 385.86L1018.62 560L1146.42 560L0 192.20000000000002z" fill="rgba(0, 0, 0, .05)"></path><path d="M0 192.20000000000005L1146.42 560L1201.6100000000001 560L0 106.55000000000004z" fill="rgba(0, 0, 0, .025)"></path></g><defs><mask id="SvgjsMask1209"><rect width="1440" height="560" fill="#ffffff"></rect></mask><linearGradient x1="15.28%" y1="-39.29%" x2="84.72%" y2="139.29%" gradientUnits="userSpaceOnUse" id="SvgjsLinearGradient1210"><stop stop-color="rgba(231, 113, 125, 1)" offset="0"></stop><stop stop-color="rgba(255, 206, 175, 1)" offset="1"></stop></linearGradient></defs></svg>